<svg width="201" height="56" viewBox="0 0 201 56" fill="none" xmlns="http://www.w3.org/2000/svg">
<path fill-rule="evenodd" clip-rule="evenodd" d="M101.024 13.2564C99.8399 13.2564 98.7794 12.9736 97.8426 12.408C96.9058 11.8424 96.1723 11.0559 95.642 10.0484C95.1118 9.02322 94.8467 7.87433 94.8467 6.60171C94.8467 5.32909 95.1029 4.19788 95.6155 3.20806C96.1458 2.20057 96.8705 1.41402 97.7896 0.848413C98.7264 0.282804 99.7869 0 100.971 0C102.155 0 103.216 0.282804 104.153 0.848413C105.089 1.41402 105.823 2.20057 106.353 3.20806C106.884 4.21555 107.149 5.35561 107.149 6.62822C107.149 7.90084 106.884 9.0409 106.353 10.0484C105.841 11.0559 105.116 11.8424 104.179 12.408C103.26 12.9736 102.208 13.2564 101.024 13.2564ZM100.971 11.6126C101.82 11.6126 102.571 11.4005 103.225 10.9763C103.896 10.5521 104.418 9.96001 104.789 9.19998C105.16 8.43994 105.346 7.58269 105.346 6.62822C105.346 5.67376 105.16 4.81651 104.789 4.05647C104.418 3.29644 103.896 2.70432 103.225 2.28011C102.571 1.8559 101.82 1.6438 100.971 1.6438C100.14 1.6438 99.398 1.8559 98.744 2.28011C98.0901 2.70432 97.5775 3.29644 97.2063 4.05647C96.8351 4.79883 96.6495 5.64725 96.6495 6.60171C96.6495 7.57385 96.8351 8.43994 97.2063 9.19998C97.5775 9.96001 98.0901 10.5521 98.744 10.9763C99.398 11.4005 100.14 11.6126 100.971 11.6126ZM67.7148 12.8322V0.424206H69.5177V11.1884H74.29V0.424206H76.0929V11.1884H80.8652V0.424206H82.6681V12.8322H67.7148ZM109.515 11.1884H108.693V12.8322H109.435C110.991 12.8322 112.069 12.0192 112.67 10.3931C113.289 8.76693 113.598 6.5752 113.598 3.81786V2.06801H118.264V12.8322H120.067V0.424206H111.901V3.31411C111.901 5.9654 111.689 7.94503 111.265 9.253C110.841 10.5433 110.257 11.1884 109.515 11.1884ZM134.853 12.8322H133.05V11.0029C132.537 11.7099 131.91 12.2666 131.167 12.6732C130.425 13.062 129.612 13.2564 128.728 13.2564C127.544 13.2564 126.483 12.9736 125.547 12.408C124.61 11.8424 123.876 11.0559 123.346 10.0484C122.816 9.0409 122.551 7.89201 122.551 6.60171C122.551 5.32909 122.807 4.19788 123.319 3.20806C123.85 2.20057 124.574 1.41402 125.493 0.848413C126.43 0.282804 127.491 0 128.675 0C129.576 0 130.398 0.203265 131.141 0.609796C131.901 0.998652 132.537 1.55542 133.05 2.28011V0.424206H134.853V12.8322ZM128.675 11.6126C129.523 11.6126 130.275 11.4005 130.929 10.9763C131.6 10.5521 132.122 9.96001 132.493 9.19998C132.864 8.43994 133.05 7.58269 133.05 6.62822C133.05 5.67376 132.864 4.81651 132.493 4.05647C132.122 3.29644 131.6 2.70432 130.929 2.28011C130.275 1.8559 129.523 1.6438 128.675 1.6438C127.844 1.6438 127.102 1.8559 126.448 2.28011C125.794 2.70432 125.281 3.29644 124.91 4.05647C124.539 4.79883 124.353 5.64725 124.353 6.60171C124.353 7.57385 124.539 8.43994 124.91 9.19998C125.281 9.96001 125.794 10.5521 126.448 10.9763C127.102 11.4005 127.844 11.6126 128.675 11.6126ZM90.2088 0.459465C90.2088 3.388 87.8348 5.76205 84.9062 5.76205V7.52957C87.8348 7.52957 90.2088 9.90362 90.2088 12.8322H91.9764C91.9764 10.1702 90.5053 7.85191 88.3317 6.64581C90.5053 5.43971 91.9764 3.12138 91.9764 0.459465H90.2088ZM73.9081 34.131C72.7246 34.131 71.6647 33.8479 70.7285 33.2816C69.7923 32.7154 69.0592 31.928 68.5293 30.9194C67.9993 29.893 67.7344 28.7429 67.7344 27.4688C67.7344 26.1948 67.9905 25.0623 68.5028 24.0714C69.0327 23.0628 69.757 22.2754 70.6755 21.7091C71.6117 21.1429 72.6716 20.8598 73.8551 20.8598C75.0387 20.8598 76.0985 21.1429 77.0347 21.7091C77.971 22.2754 78.704 23.0628 79.234 24.0714C79.7639 25.08 80.0289 26.2213 80.0289 27.4954C80.0289 28.7694 79.7639 29.9107 79.234 30.9194C78.7217 31.928 77.9975 32.7154 77.0612 33.2816C76.1427 33.8479 75.0916 34.131 73.9081 34.131ZM73.8551 32.4854C74.703 32.4854 75.4538 32.273 76.1074 31.8483C76.7786 31.4237 77.2997 30.8309 77.6707 30.07C78.0416 29.3091 78.2271 28.4509 78.2271 27.4954C78.2271 26.5399 78.0416 25.6816 77.6707 24.9208C77.2997 24.1599 76.7786 23.5671 76.1074 23.1424C75.4538 22.7177 74.703 22.5054 73.8551 22.5054C73.0249 22.5054 72.283 22.7177 71.6294 23.1424C70.9758 23.5671 70.4635 24.1599 70.0926 24.9208C69.7216 25.664 69.5362 26.5133 69.5362 27.4688C69.5362 28.4421 69.7216 29.3091 70.0926 30.07C70.4635 30.8309 70.9758 31.4237 71.6294 31.8483C72.283 32.273 73.0249 32.4854 73.8551 32.4854ZM87.958 34.131C86.7569 34.131 85.6882 33.8479 84.7519 33.2816C83.8157 32.7154 83.0826 31.928 82.5527 30.9194C82.0228 29.9107 81.7578 28.7694 81.7578 27.4954C81.7578 26.2213 82.0139 25.08 82.5262 24.0714C83.0561 23.0628 83.7892 22.2754 84.7254 21.7091C85.6617 21.1429 86.7215 20.8598 87.9051 20.8598C88.9119 20.8598 89.7863 21.081 90.5282 21.5233C91.2878 21.948 91.9767 22.5585 92.595 23.3548L91.2701 24.3899C90.4046 23.1336 89.2829 22.5054 87.9051 22.5054C87.0748 22.5054 86.3241 22.7177 85.6528 23.1424C84.9992 23.5671 84.487 24.1599 84.116 24.9208C83.7451 25.6816 83.5596 26.5399 83.5596 27.4954C83.5596 28.4509 83.7451 29.3091 84.116 30.07C84.487 30.8309 84.9992 31.4237 85.6528 31.8483C86.3241 32.273 87.0748 32.4854 87.9051 32.4854C88.7529 32.4854 89.4507 32.3438 89.9983 32.0607C90.5459 31.7599 91.0405 31.3263 91.4821 30.7601L92.8864 31.7422C92.3035 32.4677 91.5793 33.0516 90.7137 33.494C89.8658 33.9187 88.9473 34.131 87.958 34.131ZM105.487 21.2845H93.9347V22.9301H98.6247V30.07C98.6247 31.2909 98.9779 32.2465 99.6845 32.9366C100.409 33.6267 101.389 33.9717 102.626 33.9717H104.215V32.3261H102.626C101.954 32.3261 101.416 32.1403 101.009 31.7687C100.621 31.3794 100.426 30.8574 100.426 30.2027V22.9301H105.487V21.2845ZM119.334 33.7063H117.532V31.8749C117.02 32.5827 116.393 33.1401 115.651 33.5471C114.909 33.9363 114.097 34.131 113.213 34.131C112.03 34.131 110.97 33.8479 110.034 33.2816C109.098 32.7154 108.365 31.928 107.835 30.9194C107.305 29.9107 107.04 28.7606 107.04 27.4688C107.04 26.1948 107.296 25.0623 107.808 24.0714C108.338 23.0628 109.062 22.2754 109.981 21.7091C110.917 21.1429 111.977 20.8598 113.16 20.8598C114.061 20.8598 114.883 21.0633 115.625 21.4702C116.384 21.8595 117.02 22.4169 117.532 23.1424V21.2845H119.334V33.7063ZM113.16 32.4854C114.008 32.4854 114.759 32.273 115.413 31.8483C116.084 31.4237 116.605 30.8309 116.976 30.07C117.347 29.3091 117.532 28.4509 117.532 27.4954C117.532 26.5399 117.347 25.6816 116.976 24.9208C116.605 24.1599 116.084 23.5671 115.413 23.1424C114.759 22.7177 114.008 22.5054 113.16 22.5054C112.33 22.5054 111.588 22.7177 110.935 23.1424C110.281 23.5671 109.769 24.1599 109.398 24.9208C109.027 25.664 108.841 26.5133 108.841 27.4688C108.841 28.4421 109.027 29.3091 109.398 30.07C109.769 30.8309 110.281 31.4237 110.935 31.8483C111.588 32.273 112.33 32.4854 113.16 32.4854ZM124.648 21.2845H122.846V33.7063H124.648V28.0793H132.014V33.7063H133.816V21.2845H132.014V26.4337H124.648V21.2845ZM137.518 21.2845H139.32V26.4337H146.686V21.2845H148.487V33.7063H146.686V28.0793H139.32V33.7063H137.518V21.2845ZM153.806 21.2845H152.004V33.7063H157.012C158.478 33.7063 159.6 33.3436 160.377 32.6181C161.172 31.8749 161.569 30.8663 161.569 29.5922C161.569 28.389 161.198 27.4069 160.456 26.646C159.714 25.8851 158.646 25.5047 157.25 25.5047H153.806V21.2845ZM158.946 31.3971C158.504 31.8395 157.886 32.0607 157.091 32.0607H153.806V27.1503H157.091C157.886 27.1503 158.504 27.3715 158.946 27.8139C159.388 28.2386 159.608 28.8314 159.608 29.5922C159.608 30.3354 159.388 30.937 158.946 31.3971ZM169.441 34.131C168.258 34.131 167.198 33.8479 166.262 33.2816C165.326 32.7154 164.593 31.928 164.063 30.9194C163.533 29.893 163.268 28.7429 163.268 27.4688C163.268 26.1948 163.524 25.0623 164.036 24.0714C164.566 23.0628 165.29 22.2754 166.209 21.7091C167.145 21.1429 168.205 20.8598 169.388 20.8598C170.572 20.8598 171.632 21.1429 172.568 21.7091C173.504 22.2754 174.237 23.0628 174.767 24.0714C175.297 25.08 175.562 26.2213 175.562 27.4954C175.562 28.7694 175.297 29.9107 174.767 30.9194C174.255 31.928 173.531 32.7154 172.595 33.2816C171.676 33.8479 170.625 34.131 169.441 34.131ZM169.388 32.4854C170.236 32.4854 170.987 32.273 171.641 31.8483C172.312 31.4237 172.833 30.8309 173.204 30.07C173.575 29.3091 173.76 28.4509 173.76 27.4954C173.76 26.5399 173.575 25.6816 173.204 24.9208C172.833 24.1599 172.312 23.5671 171.641 23.1424C170.987 22.7177 170.236 22.5054 169.388 22.5054C168.558 22.5054 167.816 22.7177 167.163 23.1424C166.509 23.5671 165.997 24.1599 165.626 24.9208C165.255 25.664 165.069 26.5133 165.069 27.4688C165.069 28.4421 165.255 29.3091 165.626 30.07C165.997 30.8309 166.509 31.4237 167.163 31.8483C167.816 32.273 168.558 32.4854 169.388 32.4854ZM186.565 21.2845H178.298V33.7063H180.1V22.9301H186.565V21.2845ZM194.049 34.131C192.866 34.131 191.806 33.8479 190.87 33.2816C189.933 32.7154 189.2 31.928 188.67 30.9194C188.141 29.893 187.876 28.7429 187.876 27.4688C187.876 26.1948 188.132 25.0623 188.644 24.0714C189.174 23.0628 189.898 22.2754 190.817 21.7091C191.753 21.1429 192.813 20.8598 193.996 20.8598C195.18 20.8598 196.24 21.1429 197.176 21.7091C198.112 22.2754 198.845 23.0628 199.375 24.0714C199.905 25.08 200.17 26.2213 200.17 27.4954C200.17 28.7694 199.905 29.9107 199.375 30.9194C198.863 31.928 198.139 32.7154 197.202 33.2816C196.284 33.8479 195.233 34.131 194.049 34.131ZM193.996 32.4854C194.844 32.4854 195.595 32.273 196.249 31.8483C196.92 31.4237 197.441 30.8309 197.812 30.07C198.183 29.3091 198.368 28.4509 198.368 27.4954C198.368 26.5399 198.183 25.6816 197.812 24.9208C197.441 24.1599 196.92 23.5671 196.249 23.1424C195.595 22.7177 194.844 22.5054 193.996 22.5054C193.166 22.5054 192.424 22.7177 191.771 23.1424C191.117 23.5671 190.605 24.1599 190.234 24.9208C189.863 25.664 189.677 26.5133 189.677 27.4688C189.677 28.4421 189.863 29.3091 190.234 30.07C190.605 30.8309 191.117 31.4237 191.771 31.8483C192.424 32.273 193.166 32.4854 193.996 32.4854ZM91.5032 54.5809H89.7012V52.7495C89.1888 53.4573 88.5617 54.0147 87.8196 54.4216C87.0776 54.8109 86.265 55.0056 85.3816 55.0056C84.1979 55.0056 83.1379 54.7225 82.2016 54.1562C81.2652 53.59 80.5321 52.8026 80.0021 51.7939C79.472 50.7853 79.207 49.6352 79.207 48.3434C79.207 47.0694 79.4632 45.9369 79.9756 44.946C80.5056 43.9374 81.2299 43.15 82.1486 42.5837C83.0849 42.0175 84.1449 41.7344 85.3286 41.7344C86.2296 41.7344 87.0511 41.9379 87.7931 42.3448C88.5528 42.7341 89.1888 43.2915 89.7012 44.017V42.159H91.5032V54.5809ZM85.3286 53.3599C86.1766 53.3599 86.9275 53.1476 87.5811 52.7229C88.2525 52.2982 88.7737 51.7055 89.1447 50.9446C89.5157 50.1837 89.7012 49.3255 89.7012 48.37C89.7012 47.4144 89.5157 46.5562 89.1447 45.7953C88.7737 45.0345 88.2525 44.4417 87.5811 44.017C86.9275 43.5923 86.1766 43.38 85.3286 43.38C84.4983 43.38 83.7563 43.5923 83.1026 44.017C82.4489 44.4417 81.9366 45.0345 81.5656 45.7953C81.1946 46.5385 81.0091 47.3879 81.0091 48.3434C81.0091 49.3167 81.1946 50.1837 81.5656 50.9446C81.9366 51.7055 82.4489 52.2982 83.1026 52.7229C83.7563 53.1476 84.4983 53.3599 85.3286 53.3599ZM95.0157 42.159H105.457V54.5809H103.655V43.8047H96.8177V54.5809H95.0157V42.159ZM109.828 54.5809H111.63V42.159H109.828V54.5809ZM114.805 42.159H126.359V43.8047H121.298V51.0773C121.298 51.732 121.492 52.254 121.881 52.6433C122.287 53.0149 122.826 53.2007 123.497 53.2007H125.087V54.8463H123.497C122.26 54.8463 121.28 54.5013 120.556 53.8112C119.849 53.1211 119.496 52.1655 119.496 50.9446V43.8047H114.805V42.159ZM140.208 42.159H138.406V44.017C137.894 43.2915 137.257 42.7341 136.498 42.3448C135.756 41.9379 134.934 41.7344 134.033 41.7344C132.85 41.7344 131.79 42.0175 130.853 42.5837C129.935 43.15 129.21 43.9374 128.68 44.946C128.168 45.9369 127.912 47.0694 127.912 48.3434C127.912 49.6352 128.177 50.7853 128.707 51.7939C129.237 52.8026 129.97 53.59 130.906 54.1562C131.843 54.7225 132.903 55.0056 134.086 55.0056C134.97 55.0056 135.782 54.8109 136.524 54.4216C137.266 54.0147 137.894 53.4573 138.406 52.7495V54.5809H140.208V42.159ZM136.286 52.7229C135.632 53.1476 134.881 53.3599 134.033 53.3599C133.203 53.3599 132.461 53.1476 131.807 52.7229C131.154 52.2982 130.641 51.7055 130.27 50.9446C129.899 50.1837 129.714 49.3167 129.714 48.3434C129.714 47.3879 129.899 46.5385 130.27 45.7953C130.641 45.0345 131.154 44.4417 131.807 44.017C132.461 43.5923 133.203 43.38 134.033 43.38C134.881 43.38 135.632 43.5923 136.286 44.017C136.957 44.4417 137.478 45.0345 137.849 45.7953C138.22 46.5562 138.406 47.4144 138.406 48.37C138.406 49.3255 138.22 50.1837 137.849 50.9446C137.478 51.7055 136.957 52.2982 136.286 52.7229ZM142.528 52.9353H143.349C144.091 52.9353 144.674 52.2894 145.098 50.9977C145.522 49.6882 145.734 47.7064 145.734 45.0522V42.159H153.897V54.5809H152.094V43.8047H147.43V45.5565C147.43 48.3169 147.121 50.5111 146.503 52.139C145.902 53.7669 144.825 54.5809 143.27 54.5809H142.528V52.9353ZM158.128 54.5809H159.93V42.159H158.128V54.5809ZM169.618 55.0056C168.416 55.0056 167.348 54.7225 166.411 54.1562C165.475 53.59 164.742 52.8026 164.212 51.7939C163.682 50.7853 163.417 49.644 163.417 48.37C163.417 47.0959 163.673 45.9546 164.185 44.946C164.715 43.9374 165.448 43.15 166.385 42.5837C167.321 42.0175 168.381 41.7344 169.565 41.7344C170.572 41.7344 171.446 41.9555 172.188 42.3979C172.948 42.8226 173.637 43.4331 174.255 44.2293L172.93 45.2645C172.065 44.0082 170.943 43.38 169.565 43.38C168.734 43.38 167.984 43.5923 167.312 44.017C166.659 44.4417 166.146 45.0345 165.775 45.7953C165.404 46.5562 165.219 47.4144 165.219 48.37C165.219 49.3255 165.404 50.1837 165.775 50.9446C166.146 51.7055 166.659 52.2982 167.312 52.7229C167.984 53.1476 168.734 53.3599 169.565 53.3599C170.413 53.3599 171.111 53.2184 171.658 52.9353C172.206 52.6345 172.701 52.2009 173.142 51.6347L174.547 52.6168C173.964 53.3423 173.24 53.9262 172.374 54.3686C171.526 54.7932 170.607 55.0056 169.618 55.0056ZM187.149 42.159H175.595V43.8047H180.286V50.9446C180.286 52.1655 180.639 53.1211 181.346 53.8112C182.07 54.5013 183.051 54.8463 184.287 54.8463H185.877V53.2007H184.287C183.616 53.2007 183.077 53.0149 182.671 52.6433C182.282 52.254 182.088 51.732 182.088 51.0773V43.8047H187.149V42.159ZM200.998 54.5809H199.196V52.7495C198.684 53.4573 198.057 54.0147 197.315 54.4216C196.573 54.8109 195.76 55.0056 194.877 55.0056C193.693 55.0056 192.633 54.7225 191.697 54.1562C190.76 53.59 190.027 52.8026 189.497 51.7939C188.967 50.7853 188.702 49.6352 188.702 48.3434C188.702 47.0694 188.958 45.9369 189.47 44.946C190 43.9374 190.725 43.15 191.644 42.5837C192.58 42.0175 193.64 41.7344 194.824 41.7344C195.725 41.7344 196.546 41.9379 197.288 42.3448C198.048 42.7341 198.684 43.2915 199.196 44.017V42.159H200.998V54.5809ZM194.824 53.3599C195.672 53.3599 196.422 53.1476 197.076 52.7229C197.747 52.2982 198.269 51.7055 198.64 50.9446C199.011 50.1837 199.196 49.3255 199.196 48.37C199.196 47.4144 199.011 46.5562 198.64 45.7953C198.269 45.0345 197.747 44.4417 197.076 44.017C196.422 43.5923 195.672 43.38 194.824 43.38C193.993 43.38 193.251 43.5923 192.598 44.017C191.944 44.4417 191.432 45.0345 191.061 45.7953C190.689 46.5385 190.504 47.3879 190.504 48.3434C190.504 49.3167 190.689 50.1837 191.061 50.9446C191.432 51.7055 191.944 52.2982 192.598 52.7229C193.251 53.1476 193.993 53.3599 194.824 53.3599ZM69.5315 49.2587V54.5909H67.7344V42.1491H69.5315V47.4813C72.4517 47.4812 74.819 45.0939 74.819 42.1491H76.5816C76.5816 44.8259 75.1146 47.1572 72.9472 48.37C75.1146 49.5828 76.5816 51.9141 76.5816 54.5909H74.819C74.819 51.6461 72.4517 49.2588 69.5315 49.2587Z" fill="#121212"/>
<path fill-rule="evenodd" clip-rule="evenodd" d="M0 9.19265C12.521 9.19265 22.6683 19.3399 22.6683 31.8609H22.7108C22.7108 31.8609 22.7108 31.8609 22.7108 31.861H31.5045C31.5045 19.3399 41.6518 9.19269 54.1728 9.19269V0.398968C42.6444 0.398968 32.5654 6.59757 27.0864 15.8441C21.6075 6.59754 11.5284 0.398926 0 0.398926V9.19265Z" fill="#121212"/>
<path d="M54.173 54.5722L0 54.5722L0 24.3603C4.81966 24.3603 8.67539 24.3603 8.67539 24.3603L8.67539 45.9947L45.4976 45.9947L45.4976 24.3604C45.4976 24.3604 49.3533 24.3604 54.173 24.3604L54.173 54.5722Z" fill="#E0CFFA"/>
</svg>
